solid Group_2_
  facet normal 0.000000 -1.000000 0.000000
    outer loop
      vertex -38.099998 0.000002 -38.099998
      vertex -19.049999 0.000002 -19.049999
      vertex -19.049999 0.000002 19.049999
    endloop
  endfacet
  facet normal 0.000000 0.000000 -1.000000
    outer loop
      vertex -38.099998 0.000002 -38.099998
      vertex -38.099998 57.149998 -38.099998
      vertex -19.049999 25.400000 -38.099998
    endloop
  endfacet
  facet normal -1.000000 0.000000 0.000000
    outer loop
      vertex -38.099998 0.000002 -38.099998
      vertex -38.099998 38.099998 -12.700000
      vertex -38.099998 57.149998 -12.700000
    endloop
  endfacet
  facet normal -1.000000 0.000000 0.000000
    outer loop
      vertex -38.099998 0.000002 -38.099998
      vertex -38.099998 19.050001 12.700000
      vertex -38.099998 38.099998 -12.700000
    endloop
  endfacet
  facet normal 0.000000 0.000000 -1.000000
    outer loop
      vertex -38.099998 0.000002 -38.099998
      vertex -19.049999 25.400000 -38.099998
      vertex 19.049999 25.400000 -38.099998
    endloop
  endfacet
  facet normal 0.000000 -1.000000 0.000000
    outer loop
      vertex -38.099998 0.000002 -38.099998
      vertex 38.099998 0.000002 -38.099998
      vertex -19.049999 0.000002 -19.049999
    endloop
  endfacet
  facet normal 1.000000 0.000000 0.000000
    outer loop
      vertex -19.049999 0.000002 -19.049999
      vertex -19.049999 25.400000 -19.049999
      vertex -19.049999 0.000002 19.049999
    endloop
  endfacet
  facet normal 0.000000 0.000000 1.000000
    outer loop
      vertex -19.049999 0.000002 -19.049999
      vertex 19.049999 25.400000 -19.049999
      vertex -19.049999 25.400000 -19.049999
    endloop
  endfacet
  facet normal 0.000000 1.000000 0.000000
    outer loop
      vertex -19.049999 25.400000 -38.099998
      vertex -19.049999 25.400000 -19.049999
      vertex 19.049999 25.400000 -19.049999
    endloop
  endfacet
  facet normal 1.000000 0.000000 0.000000
    outer loop
      vertex -19.049999 25.400000 -19.049999
      vertex -19.049999 57.149998 -38.099998
      vertex -19.049999 0.000002 19.049999
    endloop
  endfacet
  facet normal 1.000000 0.000000 0.000000
    outer loop
      vertex -19.049999 0.000002 19.049999
      vertex -19.049999 57.149998 -38.099998
      vertex -19.049999 38.099998 -12.700000
    endloop
  endfacet
  facet normal -1.000000 0.000000 0.000000
    outer loop
      vertex -38.099998 0.000002 38.099998
      vertex -38.099998 19.050001 12.700000
      vertex -38.099998 0.000002 -38.099998
    endloop
  endfacet
  facet normal 0.000000 -1.000000 0.000000
    outer loop
      vertex -38.099998 0.000002 -38.099998
      vertex -19.049999 0.000002 19.049999
      vertex -38.099998 0.000002 38.099998
    endloop
  endfacet
  facet normal -1.000000 0.000000 0.000000
    outer loop
      vertex -38.099998 0.000002 38.099998
      vertex -38.099998 19.050001 38.099998
      vertex -38.099998 19.050001 12.700000
    endloop
  endfacet
  facet normal 0.000000 0.000000 1.000000
    outer loop
      vertex -19.049999 19.050001 12.700000
      vertex -38.099998 38.099998 12.700000
      vertex -38.099998 19.050001 12.700000
    endloop
  endfacet
  facet normal -1.000000 0.000000 0.000000
    outer loop
      vertex -38.099998 38.099998 12.700000
      vertex -38.099998 38.099998 -12.700000
      vertex -38.099998 19.050001 12.700000
    endloop
  endfacet
  facet normal 0.000000 1.000000 0.000000
    outer loop
      vertex -19.049999 19.050001 19.049999
      vertex -19.049999 19.050001 12.700000
      vertex -38.099998 19.050001 12.700000
    endloop
  endfacet
  facet normal 0.000000 0.000000 1.000000
    outer loop
      vertex -19.049999 19.050001 12.700000
      vertex -19.049999 38.099998 12.700000
      vertex -38.099998 38.099998 12.700000
    endloop
  endfacet
  facet normal 0.000000 1.000000 0.000000
    outer loop
      vertex -38.099998 19.050001 38.099998
      vertex -19.049999 19.050001 19.049999
      vertex -38.099998 19.050001 12.700000
    endloop
  endfacet
  facet normal 1.000000 0.000000 0.000000
    outer loop
      vertex -19.049999 0.000002 19.049999
      vertex -19.049999 19.050001 12.700000
      vertex -19.049999 19.050001 19.049999
    endloop
  endfacet
  facet normal 0.000000 -1.000000 0.000000
    outer loop
      vertex -38.099998 0.000002 38.099998
      vertex -19.049999 0.000002 19.049999
      vertex 19.049999 0.000002 19.049999
    endloop
  endfacet
  facet normal 0.000000 0.000000 1.000000
    outer loop
      vertex -38.099998 0.000002 38.099998
      vertex 38.099998 0.000002 38.099998
      vertex -38.099998 19.050001 38.099998
    endloop
  endfacet
  facet normal 0.000000 0.000000 -1.000000
    outer loop
      vertex -19.049999 0.000002 19.049999
      vertex -19.049999 19.050001 19.049999
      vertex 19.049999 19.050001 19.049999
    endloop
  endfacet
  facet normal 1.000000 0.000000 0.000000
    outer loop
      vertex -19.049999 0.000002 19.049999
      vertex -19.049999 38.099998 -12.700000
      vertex -19.049999 19.050001 12.700000
    endloop
  endfacet
  facet normal 1.000000 0.000000 0.000000
    outer loop
      vertex -19.049999 38.099998 12.700000
      vertex -19.049999 19.050001 12.700000
      vertex -19.049999 38.099998 -12.700000
    endloop
  endfacet
  facet normal 0.000000 1.000000 0.000000
    outer loop
      vertex -19.049999 19.050001 19.049999
      vertex -38.099998 19.050001 38.099998
      vertex 38.099998 19.050001 38.099998
    endloop
  endfacet
  facet normal -1.000000 0.000000 0.000000
    outer loop
      vertex -38.099998 0.000002 -38.099998
      vertex -38.099998 57.149998 -12.700000
      vertex -38.099998 57.149998 -38.099998
    endloop
  endfacet
  facet normal 0.000000 0.000000 -1.000000
    outer loop
      vertex -19.049999 25.400000 -38.099998
      vertex -38.099998 57.149998 -38.099998
      vertex -19.049999 57.149998 -38.099998
    endloop
  endfacet
  facet normal 0.000000 0.000000 1.000000
    outer loop
      vertex -38.099998 57.149998 -12.700000
      vertex -38.099998 38.099998 -12.700000
      vertex -19.049999 38.099998 -12.700000
    endloop
  endfacet
  facet normal 0.000000 1.000000 0.000000
    outer loop
      vertex -38.099998 38.099998 -12.700000
      vertex -19.049999 38.099998 12.700000
      vertex -19.049999 38.099998 -12.700000
    endloop
  endfacet
  facet normal 0.000000 0.000000 1.000000
    outer loop
      vertex -38.099998 57.149998 -12.700000
      vertex -19.049999 38.099998 -12.700000
      vertex -19.049999 57.149998 -12.700000
    endloop
  endfacet
  facet normal 0.000000 1.000000 0.000000
    outer loop
      vertex -38.099998 57.149998 -38.099998
      vertex -38.099998 57.149998 -12.700000
      vertex -19.049999 57.149998 -12.700000
    endloop
  endfacet
  facet normal 0.000000 1.000000 0.000000
    outer loop
      vertex -38.099998 57.149998 -38.099998
      vertex -19.049999 57.149998 -12.700000
      vertex -19.049999 57.149998 -38.099998
    endloop
  endfacet
  facet normal 1.000000 0.000000 0.000000
    outer loop
      vertex -19.049999 25.400000 -38.099998
      vertex -19.049999 57.149998 -38.099998
      vertex -19.049999 25.400000 -19.049999
    endloop
  endfacet
  facet normal 1.000000 0.000000 0.000000
    outer loop
      vertex -19.049999 57.149998 -38.099998
      vertex -19.049999 57.149998 -12.700000
      vertex -19.049999 38.099998 -12.700000
    endloop
  endfacet
  facet normal 0.000000 1.000000 0.000000
    outer loop
      vertex -19.049999 38.099998 12.700000
      vertex -38.099998 38.099998 -12.700000
      vertex -38.099998 38.099998 12.700000
    endloop
  endfacet
  facet normal 0.000000 0.000000 -1.000000
    outer loop
      vertex -38.099998 0.000002 -38.099998
      vertex 19.049999 25.400000 -38.099998
      vertex 38.099998 0.000002 -38.099998
    endloop
  endfacet
  facet normal 0.000000 -1.000000 0.000000
    outer loop
      vertex -19.049999 0.000002 -19.049999
      vertex 38.099998 0.000002 -38.099998
      vertex 19.049999 0.000002 -19.049999
    endloop
  endfacet
  facet normal 0.000000 0.000000 1.000000
    outer loop
      vertex -19.049999 0.000002 -19.049999
      vertex 19.049999 0.000002 -19.049999
      vertex 19.049999 25.400000 -19.049999
    endloop
  endfacet
  facet normal 0.000000 1.000000 0.000000
    outer loop
      vertex -19.049999 25.400000 -38.099998
      vertex 19.049999 25.400000 -19.049999
      vertex 19.049999 25.400000 -38.099998
    endloop
  endfacet
  facet normal 0.000000 -1.000000 0.000000
    outer loop
      vertex 38.099998 0.000002 -38.099998
      vertex 38.099998 0.000002 38.099998
      vertex 19.049999 0.000002 -19.049999
    endloop
  endfacet
  facet normal 0.000000 0.000000 -1.000000
    outer loop
      vertex 38.099998 0.000002 -38.099998
      vertex 19.049999 25.400000 -38.099998
      vertex 38.099998 69.849998 -38.099998
    endloop
  endfacet
  facet normal -1.000000 0.000000 0.000000
    outer loop
      vertex 19.049999 0.000002 -19.049999
      vertex 19.049999 38.099998 12.700000
      vertex 19.049999 25.400000 -19.049999
    endloop
  endfacet
  facet normal -1.000000 0.000000 0.000000
    outer loop
      vertex 19.049999 25.400000 -19.049999
      vertex 19.049999 38.099998 12.700000
      vertex 19.049999 38.099998 -12.700000
    endloop
  endfacet
  facet normal 1.000000 0.000000 0.000000
    outer loop
      vertex 38.099998 0.000002 -38.099998
      vertex 38.099998 38.099998 -12.700000
      vertex 38.099998 38.099998 12.700000
    endloop
  endfacet
  facet normal 1.000000 0.000000 0.000000
    outer loop
      vertex 38.099998 0.000002 -38.099998
      vertex 38.099998 38.099998 12.700000
      vertex 38.099998 19.050001 12.700000
    endloop
  endfacet
  facet normal 0.000000 0.000000 -1.000000
    outer loop
      vertex -19.049999 0.000002 19.049999
      vertex 19.049999 19.050001 19.049999
      vertex 19.049999 0.000002 19.049999
    endloop
  endfacet
  facet normal 0.000000 -1.000000 0.000000
    outer loop
      vertex -38.099998 0.000002 38.099998
      vertex 19.049999 0.000002 19.049999
      vertex 38.099998 0.000002 38.099998
    endloop
  endfacet
  facet normal 0.000000 0.000000 1.000000
    outer loop
      vertex 38.099998 0.000002 38.099998
      vertex 38.099998 19.050001 38.099998
      vertex -38.099998 19.050001 38.099998
    endloop
  endfacet
  facet normal 0.000000 1.000000 0.000000
    outer loop
      vertex -19.049999 19.050001 19.049999
      vertex 38.099998 19.050001 38.099998
      vertex 19.049999 19.050001 19.049999
    endloop
  endfacet
  facet normal -1.000000 0.000000 0.000000
    outer loop
      vertex 19.049999 0.000002 -19.049999
      vertex 19.049999 0.000002 19.049999
      vertex 19.049999 19.050001 12.700000
    endloop
  endfacet
  facet normal 0.000000 -1.000000 0.000000
    outer loop
      vertex 19.049999 0.000002 -19.049999
      vertex 38.099998 0.000002 38.099998
      vertex 19.049999 0.000002 19.049999
    endloop
  endfacet
  facet normal -1.000000 0.000000 0.000000
    outer loop
      vertex 19.049999 0.000002 19.049999
      vertex 19.049999 19.050001 19.049999
      vertex 19.049999 19.050001 12.700000
    endloop
  endfacet
  facet normal 1.000000 0.000000 0.000000
    outer loop
      vertex 38.099998 0.000002 -38.099998
      vertex 38.099998 19.050001 38.099998
      vertex 38.099998 0.000002 38.099998
    endloop
  endfacet
  facet normal 1.000000 0.000000 0.000000
    outer loop
      vertex 38.099998 0.000002 -38.099998
      vertex 38.099998 19.050001 12.700000
      vertex 38.099998 19.050001 38.099998
    endloop
  endfacet
  facet normal -1.000000 0.000000 0.000000
    outer loop
      vertex 19.049999 0.000002 -19.049999
      vertex 19.049999 19.050001 12.700000
      vertex 19.049999 38.099998 12.700000
    endloop
  endfacet
  facet normal 0.000000 0.000000 1.000000
    outer loop
      vertex 19.049999 38.099998 12.700000
      vertex 19.049999 19.050001 12.700000
      vertex 38.099998 19.050001 12.700000
    endloop
  endfacet
  facet normal 0.000000 0.000000 1.000000
    outer loop
      vertex 19.049999 38.099998 12.700000
      vertex 38.099998 19.050001 12.700000
      vertex 38.099998 38.099998 12.700000
    endloop
  endfacet
  facet normal 0.000000 1.000000 0.000000
    outer loop
      vertex 19.049999 19.050001 19.049999
      vertex 38.099998 19.050001 38.099998
      vertex 19.049999 19.050001 12.700000
    endloop
  endfacet
  facet normal 0.000000 1.000000 0.000000
    outer loop
      vertex 38.099998 19.050001 38.099998
      vertex 38.099998 19.050001 12.700000
      vertex 19.049999 19.050001 12.700000
    endloop
  endfacet
  facet normal -1.000000 0.000000 0.000000
    outer loop
      vertex 19.049999 25.400000 -38.099998
      vertex 19.049999 25.400000 -19.049999
      vertex 19.049999 69.849998 -38.099998
    endloop
  endfacet
  facet normal -1.000000 0.000000 0.000000
    outer loop
      vertex 19.049999 25.400000 -19.049999
      vertex 19.049999 38.099998 -12.700000
      vertex 19.049999 69.849998 -38.099998
    endloop
  endfacet
  facet normal 1.000000 0.000000 0.000000
    outer loop
      vertex 38.099998 0.000002 -38.099998
      vertex 38.099998 69.849998 -38.099998
      vertex 38.099998 38.099998 -12.700000
    endloop
  endfacet
  facet normal 0.000000 0.000000 1.000000
    outer loop
      vertex 38.099998 38.099998 -12.700000
      vertex 19.049999 69.849998 -12.700000
      vertex 19.049999 38.099998 -12.700000
    endloop
  endfacet
  facet normal 0.000000 1.000000 0.000000
    outer loop
      vertex 38.099998 38.099998 12.700000
      vertex 38.099998 38.099998 -12.700000
      vertex 19.049999 38.099998 -12.700000
    endloop
  endfacet
  facet normal 0.000000 0.000000 -1.000000
    outer loop
      vertex 19.049999 25.400000 -38.099998
      vertex 19.049999 69.849998 -38.099998
      vertex 38.099998 69.849998 -38.099998
    endloop
  endfacet
  facet normal -1.000000 0.000000 0.000000
    outer loop
      vertex 19.049999 69.849998 -38.099998
      vertex 19.049999 38.099998 -12.700000
      vertex 19.049999 69.849998 -12.700000
    endloop
  endfacet
  facet normal 0.000000 1.000000 0.000000
    outer loop
      vertex 38.099998 69.849998 -12.700000
      vertex 19.049999 69.849998 -38.099998
      vertex 19.049999 69.849998 -12.700000
    endloop
  endfacet
  facet normal 1.000000 0.000000 0.000000
    outer loop
      vertex 38.099998 69.849998 -38.099998
      vertex 38.099998 69.849998 -12.700000
      vertex 38.099998 38.099998 -12.700000
    endloop
  endfacet
  facet normal 0.000000 1.000000 0.000000
    outer loop
      vertex 38.099998 69.849998 -38.099998
      vertex 19.049999 69.849998 -38.099998
      vertex 38.099998 69.849998 -12.700000
    endloop
  endfacet
  facet normal 0.000000 0.000000 1.000000
    outer loop
      vertex 19.049999 69.849998 -12.700000
      vertex 38.099998 38.099998 -12.700000
      vertex 38.099998 69.849998 -12.700000
    endloop
  endfacet
  facet normal 0.000000 1.000000 0.000000
    outer loop
      vertex 19.049999 38.099998 -12.700000
      vertex 19.049999 38.099998 12.700000
      vertex 38.099998 38.099998 12.700000
    endloop
  endfacet
endsolid Group_2_
