solid Group_2_
  facet normal -1.000000 0.000000 0.000000
    outer loop
      vertex -38.099998 12.700003 38.099998
      vertex -38.099998 25.400002 19.049999
      vertex -38.099998 12.700003 19.049999
    endloop
  endfacet
  facet normal -1.000000 0.000000 0.000000
    outer loop
      vertex -38.099998 76.199997 38.099998
      vertex -38.099998 25.400002 6.349998
      vertex -38.099998 25.400002 19.049999
    endloop
  endfacet
  facet normal -1.000000 0.000000 0.000000
    outer loop
      vertex -38.099998 76.199997 38.099998
      vertex -38.099998 25.400002 19.049999
      vertex -38.099998 12.700003 38.099998
    endloop
  endfacet
  facet normal 0.000000 0.000000 -1.000000
    outer loop
      vertex -38.099998 12.700003 19.049999
      vertex -38.099998 25.400002 19.049999
      vertex 38.099998 12.700003 19.049999
    endloop
  endfacet
  facet normal 0.000000 -1.000000 0.000000
    outer loop
      vertex -38.099998 25.400002 19.049999
      vertex -38.099998 25.400002 6.349998
      vertex 38.099998 25.400002 19.049999
    endloop
  endfacet
  facet normal 0.000000 -1.000000 0.000000
    outer loop
      vertex -38.099998 12.700003 38.099998
      vertex -38.099998 12.700003 19.049999
      vertex 38.099998 12.700003 38.099998
    endloop
  endfacet
  facet normal 0.000000 0.000000 -1.000000
    outer loop
      vertex -38.099998 25.400002 6.349998
      vertex -38.099998 44.450001 6.349998
      vertex 38.099998 25.400002 6.349998
    endloop
  endfacet
  facet normal 0.000000 0.000000 1.000000
    outer loop
      vertex -38.099998 76.199997 38.099998
      vertex -38.099998 12.700003 38.099998
      vertex 38.099998 12.700003 38.099998
    endloop
  endfacet
  facet normal -1.000000 0.000000 0.000000
    outer loop
      vertex -38.099998 44.450001 -19.050001
      vertex -38.099998 44.450001 6.349998
      vertex -38.099998 69.849998 -19.050001
    endloop
  endfacet
  facet normal -1.000000 0.000000 0.000000
    outer loop
      vertex -38.099998 69.849998 -19.050001
      vertex -38.099998 76.199997 -25.400002
      vertex -38.099998 69.849998 -25.400002
    endloop
  endfacet
  facet normal -1.000000 0.000000 0.000000
    outer loop
      vertex -38.099998 76.199997 38.099998
      vertex -38.099998 76.199997 -25.400002
      vertex -38.099998 69.849998 -19.050001
    endloop
  endfacet
  facet normal 0.000000 0.000000 -1.000000
    outer loop
      vertex -38.099998 44.450001 -19.050001
      vertex -38.099998 69.849998 -19.050001
      vertex 38.099998 44.450001 -19.050001
    endloop
  endfacet
  facet normal 0.000000 -1.000000 0.000000
    outer loop
      vertex -38.099998 44.450001 6.349998
      vertex -38.099998 44.450001 -19.050001
      vertex 38.099998 44.450001 6.349998
    endloop
  endfacet
  facet normal 0.000000 0.000000 -1.000000
    outer loop
      vertex -38.099998 69.849998 -25.400002
      vertex -38.099998 76.199997 -25.400002
      vertex 38.099998 69.849998 -25.400002
    endloop
  endfacet
  facet normal 0.000000 -1.000000 0.000000
    outer loop
      vertex -38.099998 69.849998 -19.050001
      vertex -38.099998 69.849998 -25.400002
      vertex 38.099998 69.849998 -19.050001
    endloop
  endfacet
  facet normal -1.000000 0.000000 0.000000
    outer loop
      vertex -38.099998 76.199997 38.099998
      vertex -38.099998 44.450001 6.349998
      vertex -38.099998 25.400002 6.349998
    endloop
  endfacet
  facet normal -1.000000 0.000000 0.000000
    outer loop
      vertex -38.099998 76.199997 38.099998
      vertex -38.099998 69.849998 -19.050001
      vertex -38.099998 44.450001 6.349998
    endloop
  endfacet
  facet normal 0.000000 1.000000 0.000000
    outer loop
      vertex -38.099998 76.199997 38.099998
      vertex 38.099998 76.199997 38.099998
      vertex -38.099998 76.199997 -25.400002
    endloop
  endfacet
  facet normal 0.000000 -1.000000 0.000000
    outer loop
      vertex 38.099998 25.400002 6.349998
      vertex 38.099998 25.400002 19.049999
      vertex -38.099998 25.400002 6.349998
    endloop
  endfacet
  facet normal 0.000000 0.000000 -1.000000
    outer loop
      vertex 38.099998 25.400002 19.049999
      vertex 38.099998 12.700003 19.049999
      vertex -38.099998 25.400002 19.049999
    endloop
  endfacet
  facet normal 0.000000 -1.000000 0.000000
    outer loop
      vertex 38.099998 12.700003 19.049999
      vertex 38.099998 12.700003 38.099998
      vertex -38.099998 12.700003 19.049999
    endloop
  endfacet
  facet normal 0.000000 0.000000 -1.000000
    outer loop
      vertex 38.099998 44.450001 6.349998
      vertex 38.099998 25.400002 6.349998
      vertex -38.099998 44.450001 6.349998
    endloop
  endfacet
  facet normal 1.000000 0.000000 0.000000
    outer loop
      vertex 38.099998 76.199997 38.099998
      vertex 38.099998 25.400002 19.049999
      vertex 38.099998 25.400002 6.349998
    endloop
  endfacet
  facet normal 1.000000 0.000000 0.000000
    outer loop
      vertex 38.099998 76.199997 38.099998
      vertex 38.099998 12.700003 38.099998
      vertex 38.099998 12.700003 19.049999
    endloop
  endfacet
  facet normal 1.000000 0.000000 0.000000
    outer loop
      vertex 38.099998 76.199997 38.099998
      vertex 38.099998 12.700003 19.049999
      vertex 38.099998 25.400002 19.049999
    endloop
  endfacet
  facet normal 0.000000 -1.000000 0.000000
    outer loop
      vertex 38.099998 44.450001 -19.050001
      vertex 38.099998 44.450001 6.349998
      vertex -38.099998 44.450001 -19.050001
    endloop
  endfacet
  facet normal 0.000000 0.000000 -1.000000
    outer loop
      vertex 38.099998 69.849998 -19.050001
      vertex 38.099998 44.450001 -19.050001
      vertex -38.099998 69.849998 -19.050001
    endloop
  endfacet
  facet normal 0.000000 -1.000000 0.000000
    outer loop
      vertex 38.099998 69.849998 -25.400002
      vertex 38.099998 69.849998 -19.050001
      vertex -38.099998 69.849998 -25.400002
    endloop
  endfacet
  facet normal 0.000000 0.000000 -1.000000
    outer loop
      vertex -38.099998 76.199997 -25.400002
      vertex 38.099998 76.199997 -25.400002
      vertex 38.099998 69.849998 -25.400002
    endloop
  endfacet
  facet normal 0.000000 1.000000 0.000000
    outer loop
      vertex 38.099998 76.199997 38.099998
      vertex 38.099998 76.199997 -25.400002
      vertex -38.099998 76.199997 -25.400002
    endloop
  endfacet
  facet normal 1.000000 0.000000 0.000000
    outer loop
      vertex 38.099998 76.199997 -25.400002
      vertex 38.099998 69.849998 -19.050001
      vertex 38.099998 69.849998 -25.400002
    endloop
  endfacet
  facet normal 1.000000 0.000000 0.000000
    outer loop
      vertex 38.099998 76.199997 38.099998
      vertex 38.099998 44.450001 -19.050001
      vertex 38.099998 69.849998 -19.050001
    endloop
  endfacet
  facet normal 1.000000 0.000000 0.000000
    outer loop
      vertex 38.099998 76.199997 38.099998
      vertex 38.099998 69.849998 -19.050001
      vertex 38.099998 76.199997 -25.400002
    endloop
  endfacet
  facet normal 0.000000 0.000000 1.000000
    outer loop
      vertex -38.099998 76.199997 38.099998
      vertex 38.099998 12.700003 38.099998
      vertex 38.099998 76.199997 38.099998
    endloop
  endfacet
  facet normal 1.000000 0.000000 0.000000
    outer loop
      vertex 38.099998 76.199997 38.099998
      vertex 38.099998 25.400002 6.349998
      vertex 38.099998 44.450001 6.349998
    endloop
  endfacet
  facet normal 1.000000 0.000000 0.000000
    outer loop
      vertex 38.099998 76.199997 38.099998
      vertex 38.099998 44.450001 6.349998
      vertex 38.099998 44.450001 -19.050001
    endloop
  endfacet
endsolid Group_2_
