<svg width="420" height="426" viewBox="0 0 420 426" fill="none" xmlns="http://www.w3.org/2000/svg">
<path d="M2 64.9481C2 13.6414 22.8 6.82144 37.1633 2.66144V112.611H79.6533V132.895H2V64.9481Z" fill="url(#paint0_linear_5_9)"/>
<path d="M37.1633 2.66144H39.1633V-9.53674e-06L36.6069 0.740388L37.1633 2.66144ZM79.6533 112.611H81.6533C81.6533 111.507 80.7579 110.611 79.6533 110.611V112.611ZM79.6533 132.895V134.895C80.7579 134.895 81.6533 133.999 81.6533 132.895H79.6533ZM2 132.895H0C0 133.999 0.89543 134.895 2 134.895L2 132.895ZM37.1633 112.611H35.1633C35.1633 113.716 36.0588 114.611 37.1633 114.611V112.611ZM2 64.9481H4C4 39.5275 9.15824 25.5229 15.7497 17.3834C22.3241 9.26495 30.5692 6.65346 37.7197 4.58249L37.1633 2.66144L36.6069 0.740388C29.3941 2.82942 20.0575 5.70793 12.6411 14.8661C5.24176 24.0033 0 39.062 0 64.9481H2ZM79.6533 112.611H77.6533V132.895H79.6533H81.6533V112.611H79.6533ZM79.6533 132.895V130.895H2V132.895V134.895H79.6533V132.895ZM2 132.895H4V64.9481H2H0V132.895H2ZM37.1633 2.66144H35.1633V112.611H37.1633H39.1633V2.66144H37.1633ZM37.1633 112.611V114.611H79.6533V112.611V110.611H37.1633V112.611Z" fill="#4D5563"/>
<path d="M78.2865 109.437H409.656C414.424 109.437 418 113.013 418 117.78V260.818C418 265.586 414.424 269.162 409.656 269.162H313.702C290.458 269.162 270.791 285.253 263.043 307.305H192.12C195.1 287.637 188.544 269.162 174.241 269.162H86.0344C81.2665 269.162 78.2865 265.586 78.2865 260.818V109.437Z" fill="url(#paint1_linear_5_9)" stroke="#4D5563" stroke-width="4" stroke-linecap="round" stroke-linejoin="round"/>
<path d="M69 283.439L75.5036 276.428V221.161H150V224.146C150 236.085 146.453 247.426 141.723 261.753L102.5 397.661L69 421.661V283.439Z" fill="url(#paint2_linear_5_9)"/>
<path d="M69 283.439L67.5337 282.079C67.1906 282.449 67 282.934 67 283.439H69ZM75.5036 276.428L76.9699 277.788C77.313 277.418 77.5036 276.932 77.5036 276.428H75.5036ZM75.5036 221.161V219.161C74.3991 219.161 73.5036 220.057 73.5036 221.161H75.5036ZM150 221.161H152C152 220.057 151.105 219.161 150 219.161V221.161ZM141.723 261.753L139.823 261.126C139.816 261.15 139.808 261.174 139.801 261.198L141.723 261.753ZM102.5 397.661L103.665 399.287C104.03 399.025 104.297 398.648 104.422 398.216L102.5 397.661ZM69 421.661H67V425.555L70.1648 423.287L69 421.661ZM69 283.439L70.4663 284.799L76.9699 277.788L75.5036 276.428L74.0374 275.068L67.5337 282.079L69 283.439ZM75.5036 276.428H77.5036V221.161H75.5036H73.5036V276.428H75.5036ZM75.5036 221.161V223.161H150V221.161V219.161H75.5036V221.161ZM150 221.161H148V224.146H150H152V221.161H150ZM150 224.146H148C148 235.713 144.568 246.755 139.823 261.126L141.723 261.753L143.622 262.38C148.337 248.098 152 236.457 152 224.146H150ZM141.723 261.753L139.801 261.198L100.578 397.107L102.5 397.661L104.422 398.216L143.644 262.307L141.723 261.753ZM102.5 397.661L101.335 396.036L67.8352 420.036L69 421.661L70.1648 423.287L103.665 399.287L102.5 397.661ZM69 421.661H71V283.439H69H67V421.661H69Z" fill="#4D5563"/>
<path d="M223.708 324.589C290.855 324.589 345.289 270.155 345.289 203.007C345.289 135.859 290.855 81.4252 223.708 81.4252C156.56 81.4252 102.126 135.859 102.126 203.007C102.126 270.155 156.56 324.589 223.708 324.589Z" fill="#AFB6C1" stroke="#4D5563" stroke-width="4" stroke-linecap="round" stroke-linejoin="round"/>
<path d="M223.708 316.245C286.247 316.245 336.946 265.546 336.946 203.007C336.946 140.467 286.247 89.7691 223.708 89.7691C161.168 89.7691 110.47 140.467 110.47 203.007C110.47 265.546 161.168 316.245 223.708 316.245Z" fill="url(#paint3_linear_5_9)" stroke="#4D5563" stroke-width="4" stroke-linecap="round" stroke-linejoin="round"/>
<path opacity="0.98" d="M223.708 312.669C284.272 312.669 333.37 263.571 333.37 203.007C333.37 142.442 284.272 93.345 223.708 93.345C163.143 93.345 114.046 142.442 114.046 203.007C114.046 263.571 163.143 312.669 223.708 312.669Z" fill="url(#paint4_linear_5_9)"/>
<path d="M379.024 95.9156H338.497C335.864 95.9156 333.729 98.0503 333.729 100.684V101.876C333.729 104.509 335.864 106.643 338.497 106.643H379.024C381.658 106.643 383.792 104.509 383.792 101.876V100.684C383.792 98.0503 381.658 95.9156 379.024 95.9156Z" fill="#66707D" stroke="#4D5563" stroke-width="4" stroke-linecap="round" stroke-linejoin="round"/>
<path d="M379.62 73.2681H337.901C331.976 73.2681 327.173 78.0711 327.173 83.9959V88.7638C327.173 94.6886 331.976 99.4916 337.901 99.4916H379.62C385.545 99.4916 390.348 94.6886 390.348 88.7638V83.9959C390.348 78.0711 385.545 73.2681 379.62 73.2681Z" fill="#4F5661" stroke="#4D5563" stroke-width="4" stroke-linecap="round" stroke-linejoin="round"/>
<g opacity="0.55">
<path d="M334.921 76.8441V98.8956" stroke="#3F4752" stroke-width="3" stroke-linecap="round"/>
<path d="M340.881 75.652V98.8956" stroke="#3F4752" stroke-width="3" stroke-linecap="round"/>
<path d="M346.841 75.0561V98.8956" stroke="#3F4752" stroke-width="3" stroke-linecap="round"/>
<path d="M352.801 74.4601V98.8956" stroke="#3F4752" stroke-width="3" stroke-linecap="round"/>
<path d="M358.761 74.4601V98.8956" stroke="#3F4752" stroke-width="3" stroke-linecap="round"/>
<path d="M364.721 74.4601V98.8956" stroke="#3F4752" stroke-width="3" stroke-linecap="round"/>
<path d="M370.68 75.0561V98.8956" stroke="#3F4752" stroke-width="3" stroke-linecap="round"/>
<path d="M376.64 75.652V98.8956" stroke="#3F4752" stroke-width="3" stroke-linecap="round"/>
<path d="M382.6 76.8441V98.8956" stroke="#3F4752" stroke-width="3" stroke-linecap="round"/>
</g>
<path d="M243.326 324.255H203.99C201.357 324.255 199.223 326.389 199.223 329.023V331.407C199.223 334.04 201.357 336.174 203.99 336.174H243.326C245.959 336.174 248.094 334.04 248.094 331.407V329.023C248.094 326.389 245.959 324.255 243.326 324.255Z" fill="#66707D" stroke="#4D5563" stroke-width="4" stroke-linecap="round" stroke-linejoin="round"/>
<path d="M245.114 335.578H202.202C196.936 335.578 192.667 339.848 192.667 345.114V355.842C192.667 361.109 196.936 365.378 202.202 365.378H245.114C250.38 365.378 254.649 361.109 254.649 355.842V345.114C254.649 339.848 250.38 335.578 245.114 335.578Z" fill="#4F5661" stroke="#4D5563" stroke-width="4" stroke-linecap="round" stroke-linejoin="round"/>
<g opacity="0.55">
<path d="M201.011 337.962V362.994" stroke="#3F4752" stroke-width="3" stroke-linecap="round"/>
<path d="M206.97 336.77V362.994" stroke="#3F4752" stroke-width="3" stroke-linecap="round"/>
<path d="M212.93 336.174V362.994" stroke="#3F4752" stroke-width="3" stroke-linecap="round"/>
<path d="M218.89 335.578V362.994" stroke="#3F4752" stroke-width="3" stroke-linecap="round"/>
<path d="M224.85 335.578V362.994" stroke="#3F4752" stroke-width="3" stroke-linecap="round"/>
<path d="M230.81 335.578V362.994" stroke="#3F4752" stroke-width="3" stroke-linecap="round"/>
<path d="M236.77 336.174V362.994" stroke="#3F4752" stroke-width="3" stroke-linecap="round"/>
<path d="M242.73 336.77V362.994" stroke="#3F4752" stroke-width="3" stroke-linecap="round"/>
<path d="M248.69 337.962V362.994" stroke="#3F4752" stroke-width="3" stroke-linecap="round"/>
</g>
<path opacity="0.45" d="M16.56 52.4681H35.9733V109.321H16.56V52.4681Z" fill="#8D97A3"/>
<path d="M223.708 210.159C227.658 210.159 230.86 206.957 230.86 203.007C230.86 199.057 227.658 195.855 223.708 195.855C219.758 195.855 216.556 199.057 216.556 203.007C216.556 206.957 219.758 210.159 223.708 210.159Z" fill="#4F5661"/>
<defs>
<linearGradient id="paint0_linear_5_9" x1="2" y1="1.16144" x2="37.1633" y2="1.16144" gradientUnits="userSpaceOnUse">
<stop stop-color="#D8DCE2"/>
<stop offset="0.55" stop-color="#CFD4DB"/>
<stop offset="1" stop-color="#D5D9DF"/>
</linearGradient>
<linearGradient id="paint1_linear_5_9" x1="78.2865" y1="109.437" x2="418" y2="109.437" gradientUnits="userSpaceOnUse">
<stop stop-color="#D8DCE2"/>
<stop offset="0.55" stop-color="#CFD4DB"/>
<stop offset="1" stop-color="#D5D9DF"/>
</linearGradient>
<linearGradient id="paint2_linear_5_9" x1="69" y1="221.161" x2="150" y2="221.161" gradientUnits="userSpaceOnUse">
<stop stop-color="#D8DCE2"/>
<stop offset="0.55" stop-color="#CFD4DB"/>
<stop offset="1" stop-color="#D5D9DF"/>
</linearGradient>
<linearGradient id="paint3_linear_5_9" x1="110.47" y1="89.7691" x2="336.946" y2="316.245" gradientUnits="userSpaceOnUse">
<stop stop-color="#F3ECD7"/>
<stop offset="1" stop-color="#EBE4CE"/>
</linearGradient>
<linearGradient id="paint4_linear_5_9" x1="114.046" y1="93.345" x2="333.37" y2="312.669" gradientUnits="userSpaceOnUse">
<stop stop-color="#F3ECD7"/>
<stop offset="1" stop-color="#EBE4CE"/>
</linearGradient>
</defs>
</svg>
