<svg width="1400" height="370" viewBox="0 0 1400 370" fill="none" xmlns="http://www.w3.org/2000/svg">
<path d="M185.5 124.5H172.5C168.082 124.5 164.5 127.565 164.5 131.347V212.653C164.5 216.435 168.082 219.5 172.5 219.5H185.5C189.918 219.5 193.5 216.435 193.5 212.653V131.347C193.5 127.565 189.918 124.5 185.5 124.5Z" fill="url(#paint0_linear_4_8)" stroke="#343A43" stroke-width="3" stroke-linecap="round" stroke-linejoin="round"/>
<path d="M178.5 152.5C276.254 152.5 355.5 129.667 355.5 101.5V88H1.5V101.5C1.5 129.667 80.7456 152.5 178.5 152.5Z" fill="#343A43" stroke="#343A43" stroke-width="3" stroke-linecap="round" stroke-linejoin="round"/>
<path d="M178.5 138.5C276.254 138.5 355.5 115.667 355.5 87.5C355.5 59.3335 276.254 36.5 178.5 36.5C80.7456 36.5 1.5 59.3335 1.5 87.5C1.5 115.667 80.7456 138.5 178.5 138.5Z" fill="url(#paint1_linear_4_8)" stroke="#343A43" stroke-width="3" stroke-linecap="round" stroke-linejoin="round"/>
<path d="M1305.5 368.5H1341.5V216.5L1398.5 200.5V185.5V170.5L1341.5 152.5V13.5H1305.5V368.5Z" fill="#1F2630" stroke="#343A43" stroke-width="3" stroke-linecap="round" stroke-linejoin="round"/>
<path d="M1304.81 23.6057H425.352C424.298 23.6057 423.443 24.4608 423.443 25.5155V84.7192C423.443 85.774 424.298 86.629 425.352 86.629H1304.81C1305.87 86.629 1306.72 85.774 1306.72 84.7192V25.5155C1306.72 24.4608 1305.87 23.6057 1304.81 23.6057Z" fill="url(#paint2_linear_4_8)" stroke="#343A43" stroke-width="3" stroke-linecap="round" stroke-linejoin="round"/>
<path d="M423.5 1.5H387.5V153.5H179V217.5H387.5V356.5H423.5V1.5Z" fill="url(#paint3_linear_4_8)" stroke="#343A43" stroke-width="3" stroke-linecap="round" stroke-linejoin="round"/>
<path d="M1303.7 150.5H425.3C424.306 150.5 423.5 151.358 423.5 152.417V217.583C423.5 218.642 424.306 219.5 425.3 219.5H1303.7C1304.69 219.5 1305.5 218.642 1305.5 217.583V152.417C1305.5 151.358 1304.69 150.5 1303.7 150.5Z" fill="url(#paint4_linear_4_8)" stroke="#343A43" stroke-width="3" stroke-linecap="round" stroke-linejoin="round"/>
<path d="M1304.81 275.699H425.352C424.298 275.699 423.443 276.554 423.443 277.609V336.812C423.443 337.867 424.298 338.722 425.352 338.722H1304.81C1305.87 338.722 1306.72 337.867 1306.72 336.812V277.609C1306.72 276.554 1305.87 275.699 1304.81 275.699Z" fill="url(#paint5_linear_4_8)" stroke="#343A43" stroke-width="3" stroke-linecap="round" stroke-linejoin="round"/>
<path d="M1398.5 184.5H1357.5" stroke="#FF0909" stroke-width="3"/>
<circle cx="320.5" cy="193.5" r="10" fill="#FF0A0A"/>
<defs>
<linearGradient id="paint0_linear_4_8" x1="164.5" y1="124.5" x2="193.5" y2="124.5" gradientUnits="userSpaceOnUse">
<stop stop-color="#1F2630"/>
<stop offset="0.5" stop-color="#2D3642"/>
<stop offset="1" stop-color="#141A22"/>
</linearGradient>
<linearGradient id="paint1_linear_4_8" x1="1.5" y1="36.5" x2="355.5" y2="36.5" gradientUnits="userSpaceOnUse">
<stop stop-color="#D5D8DD"/>
<stop offset="0.5" stop-color="#BCC2CA"/>
<stop offset="1" stop-color="#D8DCE1"/>
</linearGradient>
<linearGradient id="paint2_linear_4_8" x1="423.443" y1="23.6057" x2="1306.72" y2="23.6057" gradientUnits="userSpaceOnUse">
<stop stop-color="#F2F0DD"/>
<stop offset="1" stop-color="#EBE8D0"/>
</linearGradient>
<linearGradient id="paint3_linear_4_8" x1="387.5" y1="1.5" x2="423.5" y2="1.5" gradientUnits="userSpaceOnUse">
<stop stop-color="#1F2630"/>
<stop offset="0.5" stop-color="#2D3642"/>
<stop offset="1" stop-color="#141A22"/>
</linearGradient>
<linearGradient id="paint4_linear_4_8" x1="423.5" y1="150.5" x2="1305.5" y2="150.5" gradientUnits="userSpaceOnUse">
<stop stop-color="#F2F0DD"/>
<stop offset="1" stop-color="#EBE8D0"/>
</linearGradient>
<linearGradient id="paint5_linear_4_8" x1="423.443" y1="275.699" x2="1306.72" y2="275.699" gradientUnits="userSpaceOnUse">
<stop stop-color="#F2F0DD"/>
<stop offset="1" stop-color="#EBE8D0"/>
</linearGradient>
</defs>
</svg>
