<svg xmlns="http://www.w3.org/2000/svg" viewBox="0 0 1200 260">
  <defs>
    <linearGradient id="cabBlue" x1="0" x2="1">
      <stop offset="0" stop-color="#1aa0ff"/>
      <stop offset="1" stop-color="#0e79d6"/>
    </linearGradient>

    <linearGradient id="box" x1="0" x2="1">
      <stop offset="0" stop-color="#d7dadd"/>
      <stop offset="1" stop-color="#c6c9cc"/>
    </linearGradient>

    <filter id="shadow" x="-20%" y="-20%" width="140%" height="160%">
      <feDropShadow dx="0" dy="3" stdDeviation="3" flood-color="#000" flood-opacity="0.2"/>
    </filter>
  </defs>

  <g filter="url(#shadow)">

    <!-- ================= SHORT BOX ================= -->
    <rect x="340" y="64" width="360" height="110" rx="6"
          fill="url(#box)" stroke="#8e8f92" stroke-width="4"/>

    <path d="M350,86
             C420,70 560,70 690,90
             L690,90
             C600,100 500,118 360,128
             Z"
          fill="#ffffff" opacity="0.25"/>

    <!-- ✅ REAR WHEELS MOVED CLOSER -->
    <g transform="translate(455 220)">
      <circle r="34" fill="#222"/>
      <circle r="24" fill="#6b6b6b"/>
      <circle r="12" fill="#b8b8b8"/>
      <circle r="4" fill="#e6e6e6"/>
    </g>
    <g transform="translate(565 220)">
      <circle r="34" fill="#222"/>
      <circle r="24" fill="#6b6b6b"/>
      <circle r="12" fill="#b8b8b8"/>
      <circle r="4" fill="#e6e6e6"/>
    </g>

    <!-- ================= CAB (RIGHT) ================= -->
    <path d="M760,178
             L760,118
             C760,78 790,52 836,52
             L945,52
             C985,52 1010,74 1010,114
             L1010,178
             C1010,204 996,220 972,220
             L800,220
             C776,220 760,204 760,178 Z"
          fill="url(#cabBlue)" stroke="#0b4f8a" stroke-width="4" stroke-linejoin="round"/>

    <path d="M1010,168
             C1030,168 1044,156 1044,140
             L1044,118
             C1044,98 1030,84 1010,84
             L980,84
             L980,220
             C996,220 1010,204 1010,178 Z"
          fill="#2ab0ff" opacity="0.95" stroke="#0b4f8a" stroke-width="4"/>

    <path d="M860,84
             L946,84
             C964,84 978,98 980,116
             L984,150
             L868,150
             Z"
          fill="#bfe8ff" stroke="#0b4f8a" stroke-width="4" opacity="0.95"/>

    <rect x="880" y="120" width="70" height="40" rx="6"
          fill="#7fd0ff" opacity="0.35" stroke="#0b4f8a" stroke-width="4"/>

    <path d="M1000,114 L1060,128" stroke="#1f1f1f" stroke-width="10" stroke-linecap="round"/>
    <rect x="1046" y="120" width="26" height="12" rx="4" fill="#1f1f1f"/>

    <rect x="1048" y="186" width="18" height="22" rx="4"
          fill="#ffb000" stroke="#b44b00" stroke-width="4"/>

    <!-- cab wheels -->
    <g transform="translate(860 220)">
      <circle r="38" fill="#222"/>
      <circle r="26" fill="#6b6b6b"/>
      <circle r="14" fill="#b8b8b8"/>
      <circle r="5" fill="#e6e6e6"/>
    </g>
    <g transform="translate(960 220)">
      <circle r="34" fill="#222"/>
      <circle r="23" fill="#6b6b6b"/>
      <circle r="12" fill="#b8b8b8"/>
      <circle r="4" fill="#e6e6e6"/>
    </g>

  </g>
</svg>
